<svg width="70" height="70" viewBox="0 0 70 70" fill="none" xmlns="http://www.w3.org/2000/svg">
<circle cx="35" cy="35" r="34.5" stroke="white"/>
<g clip-path="url(#clip0_118_4022)">
<path d="M38 28.65L42.32 32.862C43.25 33.7785 45.35 34.5 47.03 34.5H56V30.6H47L42.68 26.388C41.5248 25.3317 40.1051 24.4089 38.48 23.658L34.52 21.942C33.7532 21.6428 32.8799 21.4784 31.9859 21.4647C31.0918 21.451 30.2076 21.5886 29.42 21.864L17 26.7V36.45H23V28.65L29 26.7L20 54H26L33.05 39.0825L38 42.3V54H44V38.4L35.9 33.135L38 28.65ZM41 22.8C42.5913 22.8 44.1174 22.3891 45.2426 21.6577C46.3679 20.9263 47 19.9343 47 18.9C47 17.8657 46.3679 16.8737 45.2426 16.1423C44.1174 15.4109 42.5913 15 41 15C39.4087 15 37.8826 15.4109 36.7574 16.1423C35.6321 16.8737 35 17.8657 35 18.9C35 19.9343 35.6321 20.9263 36.7574 21.6577C37.8826 22.3891 39.4087 22.8 41 22.8Z" fill="white"/>
</g>
<defs>
<clipPath id="clip0_118_4022">
<rect width="60" height="39" fill="white" transform="translate(5 15)"/>
</clipPath>
</defs>
</svg>
